<?xml version="1.0" encoding="UTF-8"?>
<!DOCTYPE svg PUBLIC "-//W3C//DTD SVG 1.1//EN" "http://www.w3.org/Graphics/SVG/1.1/DTD/svg11.dtd">
<svg version="1.1" xmlns="http://www.w3.org/2000/svg" xmlns:xlink="http://www.w3.org/1999/xlink" x="0" y="0" width="150" height="25.85" viewBox="0, 0, 150, 25.85">
  <g id="Background">
    <rect x="0" y="0" width="150" height="25.85" fill="#000000" fill-opacity="0"/>
  </g>
  <g id="wrapper">
    <g id="Logo">
      <path d="M10.68,21.82 L14.36,25.5 L18.05,21.82 L23.25,21.82 L23.25,16.61 L26.94,12.93 L23.25,9.24 L23.25,4 L18,4 L14.36,0.35 L13.36,1.35 L11.47,3.24 L10.68,4 L5.47,4 L5.47,9.24 L1.79,12.93 L4.68,15.82 L5.47,16.61 L5.47,21.82 L10.68,21.82 z" fill="#F9AB00"/>
      <path d="M21.63,12.93 C21.63,16.945 18.375,20.2 14.36,20.2 C10.345,20.2 7.09,16.945 7.09,12.93 C7.09,8.915 10.345,5.66 14.36,5.66 C18.37,5.654 21.624,8.9 21.63,12.91 L21.63,12.93 z" fill="#E37400"/>
      <path d="M13.025,15.926 L14.817,9.284 L15.802,9.55 L14.01,16.192 z" fill="#FFFFFF"/>
      <path d="M11.85,10.39 L12.61,11.07 L11.11,12.75 L12.61,14.42 L11.85,15.1 L9.74,12.74 L11.85,10.39 z M16.88,10.38 L19,12.73 L16.89,15.08 L16.13,14.4 L17.63,12.73 L16.13,11.06 L16.88,10.38 z" fill="#FFFFFF"/>
    </g>
    <g id="Text">
      <path d="M39.824,15.442 Q39.722,15.589 39.541,15.767 Q39.36,15.945 39.065,16.102 Q38.77,16.258 38.34,16.365 Q37.91,16.473 37.31,16.473 Q36.66,16.473 36.116,16.243 Q35.571,16.014 35.178,15.582 Q34.785,15.149 34.565,14.522 Q34.346,13.895 34.346,13.099 L34.346,12.542 Q34.346,11.746 34.534,11.121 Q34.722,10.496 35.085,10.062 Q35.449,9.627 35.981,9.397 Q36.514,9.168 37.202,9.168 Q37.813,9.168 38.271,9.332 Q38.73,9.495 39.053,9.786 Q39.375,10.076 39.565,10.477 Q39.756,10.877 39.824,11.351 L38.887,11.351 Q38.833,11.062 38.718,10.806 Q38.604,10.55 38.403,10.357 Q38.203,10.164 37.91,10.052 Q37.617,9.939 37.207,9.939 Q36.709,9.939 36.348,10.12 Q35.986,10.301 35.752,10.638 Q35.518,10.975 35.403,11.453 Q35.288,11.932 35.288,12.532 L35.288,13.099 Q35.288,13.714 35.435,14.197 Q35.581,14.681 35.847,15.018 Q36.113,15.354 36.487,15.53 Q36.86,15.706 37.314,15.706 Q37.695,15.706 37.961,15.655 Q38.228,15.604 38.411,15.528 Q38.594,15.452 38.706,15.362 Q38.818,15.271 38.892,15.193 L38.892,13.597 L37.246,13.597 L37.246,12.835 L39.824,12.835 z" fill="#8B8C8E"/>
      <path d="M41.006,13.685 Q41.006,13.108 41.174,12.618 Q41.343,12.127 41.653,11.766 Q41.963,11.404 42.407,11.199 Q42.852,10.994 43.403,10.994 Q43.965,10.994 44.412,11.199 Q44.858,11.404 45.171,11.766 Q45.483,12.127 45.649,12.618 Q45.815,13.108 45.815,13.685 L45.815,13.792 Q45.815,14.368 45.649,14.859 Q45.483,15.35 45.171,15.708 Q44.858,16.067 44.414,16.27 Q43.97,16.473 43.413,16.473 Q42.856,16.473 42.412,16.27 Q41.968,16.067 41.655,15.708 Q41.343,15.35 41.174,14.859 Q41.006,14.368 41.006,13.792 z M41.914,13.792 Q41.914,14.188 42.007,14.539 Q42.1,14.891 42.288,15.157 Q42.476,15.423 42.756,15.579 Q43.037,15.735 43.413,15.735 Q43.784,15.735 44.067,15.579 Q44.351,15.423 44.536,15.157 Q44.722,14.891 44.817,14.539 Q44.912,14.188 44.912,13.792 L44.912,13.685 Q44.912,13.294 44.817,12.94 Q44.722,12.586 44.534,12.32 Q44.346,12.054 44.063,11.895 Q43.779,11.736 43.403,11.736 Q43.032,11.736 42.754,11.895 Q42.476,12.054 42.288,12.32 Q42.1,12.586 42.007,12.94 Q41.914,13.294 41.914,13.685 z" fill="#8B8C8E"/>
      <path d="M46.709,13.685 Q46.709,13.108 46.877,12.618 Q47.046,12.127 47.356,11.766 Q47.666,11.404 48.11,11.199 Q48.555,10.994 49.106,10.994 Q49.668,10.994 50.115,11.199 Q50.562,11.404 50.874,11.766 Q51.187,12.127 51.353,12.618 Q51.519,13.108 51.519,13.685 L51.519,13.792 Q51.519,14.368 51.353,14.859 Q51.187,15.35 50.874,15.708 Q50.562,16.067 50.117,16.27 Q49.673,16.473 49.116,16.473 Q48.56,16.473 48.115,16.27 Q47.671,16.067 47.358,15.708 Q47.046,15.35 46.877,14.859 Q46.709,14.368 46.709,13.792 z M47.617,13.792 Q47.617,14.188 47.71,14.539 Q47.803,14.891 47.991,15.157 Q48.179,15.423 48.459,15.579 Q48.74,15.735 49.116,15.735 Q49.487,15.735 49.771,15.579 Q50.054,15.423 50.239,15.157 Q50.425,14.891 50.52,14.539 Q50.615,14.188 50.615,13.792 L50.615,13.685 Q50.615,13.294 50.52,12.94 Q50.425,12.586 50.237,12.32 Q50.049,12.054 49.766,11.895 Q49.482,11.736 49.106,11.736 Q48.735,11.736 48.457,11.895 Q48.179,12.054 47.991,12.32 Q47.803,12.586 47.71,12.94 Q47.617,13.294 47.617,13.685 z" fill="#8B8C8E"/>
      <path d="M52.437,13.689 Q52.437,13.084 52.581,12.588 Q52.725,12.093 52.996,11.739 Q53.267,11.385 53.652,11.189 Q54.038,10.994 54.521,10.994 Q55.024,10.994 55.396,11.17 Q55.767,11.346 56.03,11.678 L56.074,11.092 L56.899,11.092 L56.899,16.263 Q56.899,16.785 56.736,17.193 Q56.572,17.601 56.274,17.881 Q55.977,18.162 55.566,18.309 Q55.156,18.455 54.658,18.455 Q54.453,18.455 54.187,18.409 Q53.921,18.362 53.65,18.257 Q53.379,18.152 53.13,17.977 Q52.881,17.801 52.705,17.542 L53.174,17 Q53.34,17.205 53.516,17.342 Q53.691,17.479 53.87,17.562 Q54.048,17.645 54.231,17.681 Q54.414,17.718 54.595,17.718 Q54.912,17.718 55.171,17.627 Q55.43,17.537 55.613,17.356 Q55.796,17.176 55.894,16.915 Q55.991,16.653 55.991,16.307 L55.991,15.848 Q55.728,16.15 55.364,16.312 Q55,16.473 54.512,16.473 Q54.038,16.473 53.655,16.272 Q53.271,16.072 53,15.713 Q52.729,15.354 52.583,14.864 Q52.437,14.373 52.437,13.792 z M53.345,13.792 Q53.345,14.188 53.425,14.537 Q53.506,14.886 53.674,15.145 Q53.843,15.403 54.106,15.555 Q54.37,15.706 54.736,15.706 Q54.976,15.706 55.168,15.647 Q55.361,15.589 55.515,15.486 Q55.669,15.384 55.786,15.242 Q55.903,15.101 55.991,14.93 L55.991,12.518 Q55.903,12.356 55.786,12.217 Q55.669,12.078 55.515,11.976 Q55.361,11.873 55.171,11.817 Q54.98,11.761 54.746,11.761 Q54.375,11.761 54.111,11.915 Q53.848,12.068 53.677,12.332 Q53.506,12.596 53.425,12.945 Q53.345,13.294 53.345,13.689 z" fill="#8B8C8E"/>
      <path d="M59.243,16.375 L58.34,16.375 L58.34,8.875 L59.243,8.875 z" fill="#8B8C8E"/>
      <path d="M62.881,16.473 Q62.329,16.473 61.882,16.282 Q61.436,16.092 61.118,15.752 Q60.801,15.413 60.63,14.944 Q60.459,14.476 60.459,13.919 L60.459,13.714 Q60.459,13.069 60.652,12.562 Q60.845,12.054 61.167,11.707 Q61.489,11.36 61.904,11.177 Q62.319,10.994 62.769,10.994 Q63.335,10.994 63.745,11.192 Q64.155,11.39 64.421,11.736 Q64.688,12.083 64.814,12.557 Q64.941,13.03 64.941,13.587 L64.941,13.992 L61.362,13.992 Q61.372,14.358 61.482,14.676 Q61.592,14.993 61.794,15.228 Q61.997,15.462 62.283,15.599 Q62.568,15.735 62.93,15.735 Q63.408,15.735 63.74,15.54 Q64.072,15.345 64.321,15.022 L64.873,15.452 Q64.746,15.647 64.565,15.831 Q64.385,16.014 64.143,16.158 Q63.901,16.302 63.589,16.387 Q63.276,16.473 62.881,16.473 z M62.769,11.736 Q62.495,11.736 62.266,11.836 Q62.036,11.937 61.855,12.127 Q61.675,12.317 61.555,12.601 Q61.436,12.884 61.392,13.25 L64.038,13.25 L64.038,13.182 Q64.023,12.918 63.953,12.659 Q63.882,12.4 63.733,12.195 Q63.584,11.99 63.35,11.863 Q63.115,11.736 62.769,11.736 z" fill="#8B8C8E"/>
      <path d="M72.393,14.578 Q72.393,14.329 72.317,14.139 Q72.241,13.948 72.048,13.79 Q71.855,13.631 71.528,13.492 Q71.201,13.353 70.698,13.206 Q70.171,13.055 69.744,12.862 Q69.316,12.669 69.016,12.417 Q68.716,12.166 68.555,11.844 Q68.394,11.521 68.394,11.106 Q68.394,10.691 68.567,10.337 Q68.74,9.983 69.058,9.722 Q69.375,9.461 69.819,9.314 Q70.264,9.168 70.811,9.168 Q71.411,9.168 71.88,9.349 Q72.349,9.529 72.668,9.827 Q72.988,10.125 73.154,10.516 Q73.32,10.906 73.32,11.321 L72.378,11.321 Q72.378,11.023 72.283,10.77 Q72.188,10.516 71.992,10.33 Q71.797,10.145 71.504,10.042 Q71.211,9.939 70.811,9.939 Q70.435,9.939 70.156,10.027 Q69.878,10.115 69.697,10.269 Q69.517,10.423 69.429,10.633 Q69.341,10.843 69.341,11.092 Q69.341,11.316 69.436,11.502 Q69.531,11.688 69.731,11.844 Q69.932,12 70.247,12.132 Q70.562,12.264 71.001,12.386 Q71.606,12.557 72.046,12.764 Q72.485,12.972 72.771,13.235 Q73.057,13.499 73.196,13.826 Q73.335,14.153 73.335,14.568 Q73.335,15.003 73.159,15.354 Q72.983,15.706 72.659,15.955 Q72.334,16.204 71.877,16.338 Q71.421,16.473 70.859,16.473 Q70.532,16.473 70.205,16.412 Q69.878,16.351 69.578,16.229 Q69.277,16.106 69.021,15.926 Q68.765,15.745 68.574,15.506 Q68.384,15.267 68.276,14.969 Q68.169,14.671 68.169,14.314 L69.111,14.314 Q69.111,14.681 69.255,14.942 Q69.399,15.203 69.641,15.374 Q69.883,15.545 70.198,15.625 Q70.513,15.706 70.859,15.706 Q71.602,15.706 71.997,15.403 Q72.393,15.101 72.393,14.578 z" fill="#8B8C8E"/>
      <path d="M77.656,15.853 Q77.407,16.146 77.026,16.309 Q76.646,16.473 76.108,16.473 Q75.718,16.473 75.4,16.363 Q75.083,16.253 74.854,16.016 Q74.624,15.779 74.5,15.406 Q74.375,15.032 74.375,14.505 L74.375,11.092 L75.278,11.092 L75.278,14.515 Q75.278,14.871 75.361,15.103 Q75.444,15.335 75.581,15.469 Q75.718,15.604 75.894,15.655 Q76.069,15.706 76.255,15.706 Q76.807,15.706 77.141,15.496 Q77.476,15.286 77.632,14.935 L77.632,11.092 L78.535,11.092 L78.535,16.375 L77.676,16.375 z" fill="#8B8C8E"/>
      <path d="M80.757,11.092 L80.781,11.678 Q81.055,11.355 81.443,11.175 Q81.831,10.994 82.349,10.994 Q82.861,10.994 83.254,11.197 Q83.647,11.399 83.857,11.844 Q84.121,11.463 84.543,11.229 Q84.966,10.994 85.542,10.994 Q85.967,10.994 86.294,11.104 Q86.621,11.214 86.848,11.448 Q87.075,11.683 87.192,12.044 Q87.31,12.405 87.31,12.903 L87.31,16.375 L86.406,16.375 L86.406,12.898 Q86.406,12.566 86.326,12.347 Q86.245,12.127 86.099,11.995 Q85.952,11.863 85.742,11.812 Q85.532,11.761 85.278,11.761 Q85,11.761 84.785,11.849 Q84.57,11.937 84.417,12.085 Q84.263,12.234 84.172,12.437 Q84.082,12.64 84.058,12.869 L84.058,16.375 L83.149,16.375 L83.149,12.903 Q83.149,12.596 83.069,12.378 Q82.988,12.161 82.842,12.024 Q82.695,11.888 82.488,11.824 Q82.28,11.761 82.021,11.761 Q81.538,11.761 81.245,11.971 Q80.952,12.181 80.806,12.518 L80.806,16.375 L79.902,16.375 L79.902,11.092 z" fill="#8B8C8E"/>
      <path d="M89.521,11.092 L89.546,11.678 Q89.819,11.355 90.208,11.175 Q90.596,10.994 91.113,10.994 Q91.626,10.994 92.019,11.197 Q92.412,11.399 92.622,11.844 Q92.886,11.463 93.308,11.229 Q93.73,10.994 94.307,10.994 Q94.731,10.994 95.059,11.104 Q95.386,11.214 95.613,11.448 Q95.84,11.683 95.957,12.044 Q96.074,12.405 96.074,12.903 L96.074,16.375 L95.171,16.375 L95.171,12.898 Q95.171,12.566 95.09,12.347 Q95.01,12.127 94.863,11.995 Q94.717,11.863 94.507,11.812 Q94.297,11.761 94.043,11.761 Q93.765,11.761 93.55,11.849 Q93.335,11.937 93.181,12.085 Q93.027,12.234 92.937,12.437 Q92.847,12.64 92.822,12.869 L92.822,16.375 L91.914,16.375 L91.914,12.903 Q91.914,12.596 91.833,12.378 Q91.753,12.161 91.606,12.024 Q91.46,11.888 91.252,11.824 Q91.045,11.761 90.786,11.761 Q90.303,11.761 90.01,11.971 Q89.717,12.181 89.57,12.518 L89.57,16.375 L88.667,16.375 L88.667,11.092 z" fill="#8B8C8E"/>
      <path d="M99.629,16.473 Q99.077,16.473 98.63,16.282 Q98.184,16.092 97.866,15.752 Q97.549,15.413 97.378,14.944 Q97.207,14.476 97.207,13.919 L97.207,13.714 Q97.207,13.069 97.4,12.562 Q97.593,12.054 97.915,11.707 Q98.237,11.36 98.652,11.177 Q99.067,10.994 99.517,10.994 Q100.083,10.994 100.493,11.192 Q100.903,11.39 101.169,11.736 Q101.436,12.083 101.562,12.557 Q101.689,13.03 101.689,13.587 L101.689,13.992 L98.11,13.992 Q98.12,14.358 98.23,14.676 Q98.34,14.993 98.542,15.228 Q98.745,15.462 99.031,15.599 Q99.316,15.735 99.678,15.735 Q100.156,15.735 100.488,15.54 Q100.82,15.345 101.069,15.022 L101.621,15.452 Q101.494,15.647 101.313,15.831 Q101.133,16.014 100.891,16.158 Q100.649,16.302 100.337,16.387 Q100.024,16.473 99.629,16.473 z M99.517,11.736 Q99.243,11.736 99.014,11.836 Q98.784,11.937 98.604,12.127 Q98.423,12.317 98.303,12.601 Q98.184,12.884 98.14,13.25 L100.786,13.25 L100.786,13.182 Q100.771,12.918 100.701,12.659 Q100.63,12.4 100.481,12.195 Q100.332,11.99 100.098,11.863 Q99.863,11.736 99.517,11.736 z" fill="#8B8C8E"/>
      <path d="M105.288,11.902 Q105.171,11.883 105.071,11.875 Q104.971,11.868 104.844,11.868 Q104.375,11.868 104.08,12.073 Q103.784,12.278 103.638,12.625 L103.638,16.375 L102.734,16.375 L102.734,11.092 L103.613,11.092 L103.628,11.702 Q103.833,11.375 104.141,11.185 Q104.448,10.994 104.888,10.994 Q104.985,10.994 105.112,11.016 Q105.239,11.038 105.288,11.062 z" fill="#8B8C8E"/>
      <path d="M108.354,13.685 Q108.354,13.108 108.523,12.618 Q108.691,12.127 109.001,11.766 Q109.312,11.404 109.756,11.199 Q110.2,10.994 110.752,10.994 Q111.313,10.994 111.76,11.199 Q112.207,11.404 112.52,11.766 Q112.832,12.127 112.998,12.618 Q113.164,13.108 113.164,13.685 L113.164,13.792 Q113.164,14.368 112.998,14.859 Q112.832,15.35 112.52,15.708 Q112.207,16.067 111.763,16.27 Q111.318,16.473 110.762,16.473 Q110.205,16.473 109.761,16.27 Q109.316,16.067 109.004,15.708 Q108.691,15.35 108.523,14.859 Q108.354,14.368 108.354,13.792 z M109.263,13.792 Q109.263,14.188 109.355,14.539 Q109.448,14.891 109.636,15.157 Q109.824,15.423 110.105,15.579 Q110.386,15.735 110.762,15.735 Q111.133,15.735 111.416,15.579 Q111.699,15.423 111.885,15.157 Q112.07,14.891 112.166,14.539 Q112.261,14.188 112.261,13.792 L112.261,13.685 Q112.261,13.294 112.166,12.94 Q112.07,12.586 111.882,12.32 Q111.694,12.054 111.411,11.895 Q111.128,11.736 110.752,11.736 Q110.381,11.736 110.103,11.895 Q109.824,12.054 109.636,12.32 Q109.448,12.586 109.355,12.94 Q109.263,13.294 109.263,13.685 z" fill="#8B8C8E"/>
      <path d="M114.741,16.375 L114.741,11.79 L113.906,11.79 L113.906,11.092 L114.741,11.092 L114.741,10.535 Q114.741,10.11 114.861,9.781 Q114.98,9.451 115.205,9.227 Q115.43,9.002 115.752,8.887 Q116.074,8.772 116.479,8.772 Q116.792,8.772 117.1,8.855 L117.051,9.588 Q116.948,9.568 116.819,9.556 Q116.689,9.544 116.562,9.544 Q116.123,9.544 115.884,9.8 Q115.645,10.057 115.645,10.535 L115.645,11.092 L116.772,11.092 L116.772,11.79 L115.645,11.79 L115.645,16.375 z" fill="#8B8C8E"/>
      <path d="M125.615,14.119 Q125.557,14.622 125.369,15.054 Q125.181,15.486 124.849,15.801 Q124.517,16.116 124.038,16.294 Q123.56,16.473 122.92,16.473 Q122.29,16.473 121.777,16.238 Q121.265,16.004 120.901,15.572 Q120.537,15.14 120.339,14.534 Q120.142,13.929 120.142,13.182 L120.142,12.469 Q120.142,11.722 120.342,11.114 Q120.542,10.506 120.913,10.074 Q121.284,9.642 121.814,9.405 Q122.344,9.168 123.003,9.168 Q123.604,9.168 124.067,9.344 Q124.531,9.52 124.856,9.834 Q125.181,10.149 125.371,10.586 Q125.562,11.023 125.615,11.551 L124.673,11.551 Q124.619,11.18 124.507,10.882 Q124.395,10.584 124.197,10.374 Q123.999,10.164 123.706,10.052 Q123.413,9.939 123.003,9.939 Q122.529,9.939 122.17,10.123 Q121.812,10.306 121.57,10.635 Q121.328,10.965 121.206,11.431 Q121.084,11.897 121.084,12.459 L121.084,13.182 Q121.084,13.704 121.194,14.163 Q121.304,14.622 121.528,14.966 Q121.753,15.311 122.1,15.508 Q122.446,15.706 122.92,15.706 Q123.369,15.706 123.677,15.599 Q123.984,15.491 124.187,15.289 Q124.39,15.086 124.502,14.791 Q124.614,14.495 124.673,14.119 z" fill="#8B8C8E"/>
      <path d="M126.514,13.685 Q126.514,13.108 126.682,12.618 Q126.851,12.127 127.161,11.766 Q127.471,11.404 127.915,11.199 Q128.359,10.994 128.911,10.994 Q129.473,10.994 129.919,11.199 Q130.366,11.404 130.679,11.766 Q130.991,12.127 131.157,12.618 Q131.323,13.108 131.323,13.685 L131.323,13.792 Q131.323,14.368 131.157,14.859 Q130.991,15.35 130.679,15.708 Q130.366,16.067 129.922,16.27 Q129.478,16.473 128.921,16.473 Q128.364,16.473 127.92,16.27 Q127.476,16.067 127.163,15.708 Q126.851,15.35 126.682,14.859 Q126.514,14.368 126.514,13.792 z M127.422,13.792 Q127.422,14.188 127.515,14.539 Q127.607,14.891 127.795,15.157 Q127.983,15.423 128.264,15.579 Q128.545,15.735 128.921,15.735 Q129.292,15.735 129.575,15.579 Q129.858,15.423 130.044,15.157 Q130.229,14.891 130.325,14.539 Q130.42,14.188 130.42,13.792 L130.42,13.685 Q130.42,13.294 130.325,12.94 Q130.229,12.586 130.042,12.32 Q129.854,12.054 129.57,11.895 Q129.287,11.736 128.911,11.736 Q128.54,11.736 128.262,11.895 Q127.983,12.054 127.795,12.32 Q127.607,12.586 127.515,12.94 Q127.422,13.294 127.422,13.685 z" fill="#8B8C8E"/>
      <path d="M132.236,13.689 Q132.236,13.084 132.385,12.588 Q132.534,12.093 132.808,11.739 Q133.081,11.385 133.464,11.189 Q133.848,10.994 134.321,10.994 Q134.805,10.994 135.166,11.158 Q135.527,11.321 135.791,11.629 L135.791,8.875 L136.694,8.875 L136.694,16.375 L135.864,16.375 L135.82,15.809 Q135.557,16.131 135.186,16.302 Q134.814,16.473 134.312,16.473 Q133.848,16.473 133.464,16.272 Q133.081,16.072 132.808,15.713 Q132.534,15.354 132.385,14.864 Q132.236,14.373 132.236,13.792 z M133.14,13.792 Q133.14,14.188 133.22,14.537 Q133.301,14.886 133.472,15.145 Q133.643,15.403 133.906,15.555 Q134.17,15.706 134.536,15.706 Q134.775,15.706 134.966,15.65 Q135.156,15.594 135.31,15.491 Q135.464,15.389 135.583,15.247 Q135.703,15.105 135.791,14.935 L135.791,12.508 Q135.703,12.347 135.586,12.21 Q135.469,12.073 135.315,11.973 Q135.161,11.873 134.971,11.817 Q134.78,11.761 134.546,11.761 Q134.175,11.761 133.909,11.915 Q133.643,12.068 133.472,12.332 Q133.301,12.596 133.22,12.945 Q133.14,13.294 133.14,13.689 z" fill="#8B8C8E"/>
      <path d="M140.288,16.473 Q139.736,16.473 139.29,16.282 Q138.843,16.092 138.525,15.752 Q138.208,15.413 138.037,14.944 Q137.866,14.476 137.866,13.919 L137.866,13.714 Q137.866,13.069 138.059,12.562 Q138.252,12.054 138.574,11.707 Q138.896,11.36 139.312,11.177 Q139.727,10.994 140.176,10.994 Q140.742,10.994 141.152,11.192 Q141.562,11.39 141.829,11.736 Q142.095,12.083 142.222,12.557 Q142.349,13.03 142.349,13.587 L142.349,13.992 L138.77,13.992 Q138.779,14.358 138.889,14.676 Q138.999,14.993 139.202,15.228 Q139.404,15.462 139.69,15.599 Q139.976,15.735 140.337,15.735 Q140.815,15.735 141.147,15.54 Q141.479,15.345 141.729,15.022 L142.28,15.452 Q142.153,15.647 141.973,15.831 Q141.792,16.014 141.55,16.158 Q141.309,16.302 140.996,16.387 Q140.684,16.473 140.288,16.473 z M140.176,11.736 Q139.902,11.736 139.673,11.836 Q139.443,11.937 139.263,12.127 Q139.082,12.317 138.962,12.601 Q138.843,12.884 138.799,13.25 L141.445,13.25 L141.445,13.182 Q141.431,12.918 141.36,12.659 Q141.289,12.4 141.14,12.195 Q140.991,11.99 140.757,11.863 Q140.522,11.736 140.176,11.736 z" fill="#8B8C8E"/>
    </g>
    <text transform="matrix(1, 0, 0, 1, 91.875, 13.875)" display="none">
      <tspan x="-58.125" y="2.5" font-family="Roboto-Regular" font-size="10" fill="#8B8C8E">Google Summer of Code</tspan>
    </text>
  </g>
</svg>
